<?xml version="1.0" encoding="UTF-8" standalone="no"?>
<!-- Created with Inkscape (http://www.inkscape.org/) -->

<svg
   width="78.190598mm"
   height="81.232712mm"
   viewBox="0 0 78.190598 81.232712"
   version="1.1"
   id="svg1"
   xml:space="preserve"
   xmlns:inkscape="http://www.inkscape.org/namespaces/inkscape"
   xmlns:sodipodi="http://sodipodi.sourceforge.net/DTD/sodipodi-0.dtd"
   xmlns="http://www.w3.org/2000/svg"
   xmlns:svg="http://www.w3.org/2000/svg"><sodipodi:namedview
     id="namedview1"
     pagecolor="#ffffff"
     bordercolor="#000000"
     borderopacity="0.25"
     inkscape:showpageshadow="2"
     inkscape:pageopacity="0.0"
     inkscape:pagecheckerboard="0"
     inkscape:deskcolor="#d1d1d1"
     inkscape:document-units="mm"><inkscape:page
       x="0"
       y="0"
       width="78.190598"
       height="81.232712"
       id="page2"
       margin="0"
       bleed="0" /></sodipodi:namedview><defs
     id="defs1" /><g
     inkscape:label="Layer 1"
     inkscape:groupmode="layer"
     id="layer1"
     transform="translate(-42.680867,-100)"><g
       id="g2"><path
         id="rect2-6"
         style="fill:#d34a1e;fill-opacity:1;stroke:none;stroke-width:0.221409"
         d="m -20.02,163.43555 -21.040492,2.4e-4 a 16.5,16.5 0 0 1 -1.090567,14.99993 l 22.283145,-8e-5 A 16.5,16.5 0 0 1 -20.02,163.43555 Z"
         transform="rotate(-40.047795)" /><path
         id="rect2"
         style="fill:#d34a1e;fill-opacity:1;stroke:none;stroke-width:0.221409"
         d="m 136.94552,-47.53585 a 16.5,16.5 0 0 1 1.66989,10.051485 16.5,16.5 0 0 1 -1.57039,4.948831 l 22.89662,-6.5e-5 a 16.5,16.5 0 0 1 -2.02368,-10.697809 16.5,16.5 0 0 1 1.26306,-4.302113 z"
         transform="rotate(81.447977)" /><path
         id="rect2-6-4"
         style="fill:#d34a1e;fill-opacity:1;stroke:none;stroke-width:0.221409"
         d="m 110.73366,76.358885 a 16.5,16.5 0 0 1 1.19568,2.379247 16.5,16.5 0 0 1 -0.096,12.620524 l 21.61171,9e-6 a 16.5,16.5 0 0 1 -0.2602,-0.606591 16.5,16.5 0 0 1 0.97427,-14.393019 z"
         transform="rotate(22.050959)" /><circle
         style="fill:#d34a1e;fill-opacity:1;stroke:none;stroke-width:0.424555"
         id="path1-0-7"
         cx="66.236229"
         cy="166.23273"
         r="15"
         inkscape:transform-center-x="-0.58870168"
         inkscape:transform-center-y="1.4717542" /><circle
         style="fill:#d34a1e;fill-opacity:1;stroke:none;stroke-width:0.424555"
         id="path1"
         cx="57.68087"
         cy="115.00001"
         r="15" /><circle
         style="fill:#d34a1e;fill-opacity:1;stroke:none;stroke-width:0.424555"
         id="path1-0"
         cx="105.87147"
         cy="134.11552"
         r="15" /></g></g></svg>
